<svg xmlns="http://www.w3.org/2000/svg" width="256" height="256" viewBox="0 0 256 256"><path d="M87.4 170h27.9l-8.4-10.2L87.4 170zm10.7-21H84.6l-18 21.4 2.8 4.2 34.6-18.3-5.9-7.3zM73 135h112v10H73zm98-5c1.7-4 2.5-10 2.5-15.3a44.3 44.3 0 0 0-44.3-44.2c-24.3 0-44.4 19.7-44.4 44.1 0 5.3.4 11.4 2.4 15.4zm-13.1 19l-6.1 7.3 34.8 18.3 2.8-4-18-21.6h-13.5z"/><path d="M128 3.3L20 65.6v124.8l108 62.3 108-62.3V65.6zm65.5 168.5l-4.7 6.8a2.1 2.1 0 0 1-2.6.6l-9.9-5.2H79.5l-9.9 5.2a2.2 2.2 0 0 1-2.6-.6l-4.7-6.8a2.1 2.1 0 0 1 .2-2.6l17-20.2h-8.4c-1.3 0-2.1-.5-2.1-1.8v-14.7a2.3 2.3 0 0 1 2.1-2.5h11.8a51.8 51.8 0 0 1-2.2-15.3 48.5 48.5 0 0 1 48.5-48.3c26.5 0 48.4 21.8 48.4 48.2 0 5.1-.6 11.4-2.3 15.4h11.9c1.2 0 1.8 1.3 1.8 2.5v14.7c0 1.3-.6 1.8-1.8 1.8h-10.5l16.8 20.2a2.1 2.1 0 0 1 0 2.6z"/><path d="M103.4 149l17.2 21h14.8l17.2-21h-49.2zm37.3 21h27.9l-19.5-10.2-8.4 10.2z"/></svg>