<svg xmlns="http://www.w3.org/2000/svg" width="256" height="256" viewBox="0 0 256 256"><path d="M126 128V86.4L96.5 128H126zm-55 19h55v23H71zm52.9-64.5A60.7 60.7 0 0 0 69.4 128h21.9zm6.1-.4V128h56.6A60.7 60.7 0 0 0 130 82.1z"/><path d="M128 3.3L20 65.6v124.8l108 62.3 108-62.3V65.6zM216.3 147H189v25c0 1.3-.6 2-1.8 2H68.8c-1.2 0-1.8-.7-1.8-2v-25H39.7a2 2 0 1 1 0-4H55v-13.2c0-1.2.9-1.8 2.1-1.8h8a64.6 64.6 0 0 1 62.7-49.9c.2-.2.4-.1.8.1 30.3.2 55.5 21.8 62.3 49.8h8c1.2 0 2.1.6 2.1 1.8V143h15.3a2 2 0 0 1 0 4z"/><path d="M59 132h138v11H59zm84 15h42v23h-42zm-13 0h9v23h-9z"/></svg>