<svg xmlns="http://www.w3.org/2000/svg"><symbol id="bubbles" viewBox="0 0 256 256"><path d="M87.4 170h27.9l-8.4-10.2L87.4 170zm10.7-21H84.6l-18 21.4 2.8 4.2 34.6-18.3-5.9-7.3zM73 135h112v10H73zm98-5c1.7-4 2.5-10 2.5-15.3a44.3 44.3 0 0 0-44.3-44.2c-24.3 0-44.4 19.7-44.4 44.1 0 5.3.4 11.4 2.4 15.4zm-13.1 19l-6.1 7.3 34.8 18.3 2.8-4-18-21.6h-13.5z"/><path d="M128 3.3L20 65.6v124.8l108 62.3 108-62.3V65.6zm65.5 168.5l-4.7 6.8a2.1 2.1 0 0 1-2.6.6l-9.9-5.2H79.5l-9.9 5.2a2.2 2.2 0 0 1-2.6-.6l-4.7-6.8a2.1 2.1 0 0 1 .2-2.6l17-20.2h-8.4c-1.3 0-2.1-.5-2.1-1.8v-14.7a2.3 2.3 0 0 1 2.1-2.5h11.8a51.8 51.8 0 0 1-2.2-15.3 48.5 48.5 0 0 1 48.5-48.3c26.5 0 48.4 21.8 48.4 48.2 0 5.1-.6 11.4-2.3 15.4h11.9c1.2 0 1.8 1.3 1.8 2.5v14.7c0 1.3-.6 1.8-1.8 1.8h-10.5l16.8 20.2a2.1 2.1 0 0 1 0 2.6z"/><path d="M103.4 149l17.2 21h14.8l17.2-21h-49.2zm37.3 21h27.9l-19.5-10.2-8.4 10.2z"/></symbol><symbol id="domes" viewBox="0 0 256 256"><path d="M126 128V86.4L96.5 128H126zm-55 19h55v23H71zm52.9-64.5A60.7 60.7 0 0 0 69.4 128h21.9zm6.1-.4V128h56.6A60.7 60.7 0 0 0 130 82.1z"/><path d="M128 3.3L20 65.6v124.8l108 62.3 108-62.3V65.6zM216.3 147H189v25c0 1.3-.6 2-1.8 2H68.8c-1.2 0-1.8-.7-1.8-2v-25H39.7a2 2 0 1 1 0-4H55v-13.2c0-1.2.9-1.8 2.1-1.8h8a64.6 64.6 0 0 1 62.7-49.9c.2-.2.4-.1.8.1 30.3.2 55.5 21.8 62.3 49.8h8c1.2 0 2.1.6 2.1 1.8V143h15.3a2 2 0 0 1 0 4z"/><path d="M59 132h138v11H59zm84 15h42v23h-42zm-13 0h9v23h-9z"/></symbol><symbol id="stilts" viewBox="0 0 256 256"><path d="M97 157h20v13H97zm-17 0h13v13H80zm48-85c-24 0-44 14-45.1 41h90.2C172 86 152 72 128 72zm11 85h20v13h-20zm-18 0h14v13h-14zm-54-4h122v-36H67zm60-14h50a2 2 0 0 1 0 4h-50a2 2 0 1 1 0-4zm36 18h13v13h-13z"/><path d="M128 3.3L20 65.6v124.8l108 62.3 108-62.3V65.6zM193 155a2.1 2.1 0 0 1-2.3 2H180v13h10.7a2 2 0 0 1 0 4H65.3a2 2 0 0 1 0-4H76v-13H65.3a2.1 2.1 0 0 1-2.3-2v-40.3c0-1.2 1.1-1.7 2.3-1.7h13.5c1.1-29 22.8-45.1 49.2-45.1S176.1 84 177.2 113h13.5c1.2 0 2.3.5 2.3 1.7z"/></symbol></svg>