<svg xmlns="http://www.w3.org/2000/svg" width="256" height="256" viewBox="0 0 256 256"><path d="M97 157h20v13H97zm-17 0h13v13H80zm48-85c-24 0-44 14-45.1 41h90.2C172 86 152 72 128 72zm11 85h20v13h-20zm-18 0h14v13h-14zm-54-4h122v-36H67zm60-14h50a2 2 0 0 1 0 4h-50a2 2 0 1 1 0-4zm36 18h13v13h-13z"/><path d="M128 3.3L20 65.6v124.8l108 62.3 108-62.3V65.6zM193 155a2.1 2.1 0 0 1-2.3 2H180v13h10.7a2 2 0 0 1 0 4H65.3a2 2 0 0 1 0-4H76v-13H65.3a2.1 2.1 0 0 1-2.3-2v-40.3c0-1.2 1.1-1.7 2.3-1.7h13.5c1.1-29 22.8-45.1 49.2-45.1S176.1 84 177.2 113h13.5c1.2 0 2.3.5 2.3 1.7z"/></svg>